<?xml version="1.0" encoding="UTF-8"?>
<svg id="Calque_1" xmlns="http://www.w3.org/2000/svg" version="1.1" viewBox="0 0 844.8 306.3">
  <!-- Generator: Adobe Illustrator 29.4.0, SVG Export Plug-In . SVG Version: 2.1.0 Build 152)  -->
  <defs>
    <style>
      .st0, .st1 {
        fill: #fff;
      }

      .st1 {
        font-family: ABeeZee-Regular, ABeeZee;
        font-size: 169.8px;
      }
    </style>
  </defs>
  <g>
    <path class="st0" d="M47.4,146.3c-7.4,0-14-1.9-20-5.6-6-3.7-10.8-9-14.3-15.9-3.6-6.8-5.3-14.9-5.3-24.2s1.8-16.7,5.3-23.8c3.6-7,8.5-12.6,14.8-16.7,6.3-4.1,13.5-6.2,21.6-6.2s9.7.9,13.8,2.6c4.1,1.8,7.7,3.9,10.8,6.5v-7.1h13.9v66.9c0,4.3,1,7.1,3.1,8.4,2.1,1.3,4.4,2,6.9,2l-3.2,11.9c-10.9,0-17.4-4.4-19.7-13.2-2.6,3.6-6.1,6.9-10.6,9.9-4.5,3-10.2,4.5-17.1,4.5ZM50.8,132.7c4.3,0,8.4-1,12.2-3.1,3.8-2.1,7.1-4.7,9.7-7.9v-47.4c-3.1-2.1-6.4-3.9-10.1-5.2-3.7-1.3-7.6-2-11.6-2s-10.2,1.4-14.3,4.2c-4.1,2.8-7.4,6.6-9.8,11.5-2.4,4.9-3.6,10.7-3.6,17.2s1.2,12,3.6,16.9c2.4,4.9,5.7,8.8,9.8,11.5,4.2,2.8,8.9,4.2,14.1,4.2Z"/>
    <path class="st0" d="M145.1,146.3c-5.2,0-9.9-1-14.1-3-4.2-2-7.5-5.2-9.9-9.6-2.4-4.4-3.6-10.1-3.6-17.1V18.7h15.3v96.4c0,6.1,1.3,10.6,3.8,13.6,2.5,2.9,6.1,4.4,10.6,4.4s4.3-.3,6.4-.8c2.1-.5,3.9-1.1,5.3-1.8l3.7,12.4c-2,.9-4.6,1.7-7.6,2.4-3,.7-6.3,1-9.9,1Z"/>
    <path class="st0" d="M209.8,146.3c-12.7,0-22.7-4-30.1-12.1-7.4-8.1-11.1-19.4-11.1-34s1.7-16.7,5-23.7c3.3-7,8-12.4,14-16.5,6-4,13-6,20.9-6s15.5,1.8,21.1,5.5c5.6,3.7,9.8,8.6,12.6,14.9,2.8,6.2,4.2,13.1,4.2,20.5s-.2,7.8-.5,11.5h-61.8c1,8.3,3.9,14.7,8.7,19.4,4.8,4.6,11,7,18.8,7s9.7-.5,13.8-1.6c4.1-1.1,8-2.5,11.7-4.2l3.6,13.1c-4.1,1.8-8.7,3.3-13.8,4.5-5.1,1.2-10.8,1.8-17.1,1.8ZM184,94h48.4c0-8.6-2.2-15.2-6.5-19.9-4.3-4.6-10.2-7-17.8-7s-12,2.3-16.3,6.9c-4.3,4.6-6.9,11.2-7.8,19.9Z"/>
    <path class="st0" d="M254.5,183.7c-6.9,0-12.7-1.3-17.3-3.9l3.7-12.7c1.5.9,3.3,1.7,5.3,2.4,2.1.7,4.2,1,6.4,1,9.6,0,14.4-6,14.4-18V56h15.3v97.9c0,6.9-1.2,12.5-3.7,16.9-2.5,4.4-5.8,7.6-10,9.7-4.2,2.1-8.9,3.1-14.1,3.1ZM274.3,40.9c-2.9,0-5.5-1.1-7.6-3.2-2.1-2.1-3.1-4.6-3.1-7.5s1-5.9,2.9-7.8c1.9-1.9,4.5-2.9,7.8-2.9s5.5,1,7.6,3.1c2.1,2.1,3.1,4.6,3.1,7.6s-1,5.7-2.9,7.7c-1.9,2-4.5,3-7.8,3Z"/>
    <path class="st0" d="M343.2,146.3c-7.4,0-14-1.9-20-5.6-6-3.7-10.8-9-14.3-15.9-3.6-6.8-5.3-14.9-5.3-24.2s1.8-16.7,5.3-23.8c3.6-7,8.5-12.6,14.8-16.7,6.3-4.1,13.5-6.2,21.6-6.2s9.7.9,13.8,2.6c4.1,1.8,7.7,3.9,10.8,6.5v-7.1h13.9v66.9c0,4.3,1,7.1,3.1,8.4,2.1,1.3,4.4,2,6.9,2l-3.2,11.9c-10.9,0-17.4-4.4-19.7-13.2-2.6,3.6-6.1,6.9-10.6,9.9-4.5,3-10.2,4.5-17.1,4.5ZM346.6,132.7c4.3,0,8.4-1,12.2-3.1,3.8-2.1,7.1-4.7,9.7-7.9v-47.4c-3.1-2.1-6.4-3.9-10.1-5.2-3.7-1.3-7.6-2-11.6-2s-10.2,1.4-14.3,4.2c-4.1,2.8-7.4,6.6-9.8,11.5-2.4,4.9-3.6,10.7-3.6,17.2s1.2,12,3.6,16.9c2.4,4.9,5.7,8.8,9.8,11.5,4.2,2.8,8.9,4.2,14.1,4.2Z"/>
    <path class="st0" d="M414.2,144.3V56h14.8v14.8c3.2-4.8,7.2-8.7,12.1-12,4.9-3.2,10.8-4.8,17.6-4.8,10,0,17.4,3,22.3,9,4.9,6,7.4,13.9,7.4,23.8v57.5h-15.3v-55.8c0-6.3-1.5-11.4-4.5-15.3-3-3.8-7.2-5.8-12.5-5.8s-10.1,1.8-14.8,5.5c-4.6,3.7-8.6,8-11.9,13v58.4h-15.3Z"/>
    <path class="st0" d="M548.1,146.3c-7.2,0-13.9-1.9-19.9-5.6-6-3.7-10.8-9-14.3-15.9-3.5-6.8-5.3-14.9-5.3-24.2s1.8-16.9,5.3-23.9c3.6-7,8.3-12.6,14.3-16.6s12.5-6.1,19.6-6.1,10.9,1.2,15.2,3.6,7.6,4.8,9.9,7.3V18.7h15.3v104.2c0,4.3,1,7.1,3.1,8.4,2.1,1.3,4.4,2,6.9,2l-3.2,11.9c-10.8,0-17.3-4.3-19.7-12.9-2.5,3.5-6,6.7-10.4,9.7-4.5,2.9-10.1,4.4-16.9,4.4ZM551.5,132.7c4.2,0,8.2-1,12-3,3.8-2,7-4.6,9.6-7.7v-43.8c-2.2-2.7-5.2-5.2-9-7.6-3.8-2.3-8.1-3.5-12.7-3.5s-10.2,1.5-14.3,4.4c-4.1,2.9-7.2,6.9-9.4,11.8-2.2,4.9-3.3,10.5-3.3,16.7s1.2,11.8,3.6,16.7c2.4,4.9,5.6,8.8,9.8,11.6,4.1,2.8,8.7,4.2,13.8,4.2Z"/>
    <path class="st0" d="M618.7,144.3V56h14.8v19.2c1.5-3.7,3.5-7.2,5.9-10.4,2.5-3.2,5.6-5.8,9.3-7.8,3.7-2,8.1-3,13.1-3s3.4,0,5.1.3c1.7.2,3.1.4,4.2.8l-4.6,15.8c-2.2-.9-4.7-1.4-7.6-1.4-4.2,0-8.2,1.2-12,3.6-3.8,2.4-6.9,6.1-9.3,11-2.4,5-3.6,11.3-3.6,19v41.2h-15.3Z"/>
    <path class="st0" d="M715.2,146.3c-7.4,0-14-1.9-20-5.6-6-3.7-10.8-9-14.3-15.9-3.6-6.8-5.3-14.9-5.3-24.2s1.8-16.7,5.3-23.8c3.6-7,8.5-12.6,14.8-16.7,6.3-4.1,13.5-6.2,21.6-6.2s9.7.9,13.8,2.6c4.1,1.8,7.7,3.9,10.8,6.5v-7.1h13.9v66.9c0,4.3,1,7.1,3.1,8.4,2.1,1.3,4.4,2,6.9,2l-3.2,11.9c-10.9,0-17.4-4.4-19.7-13.2-2.6,3.6-6.1,6.9-10.6,9.9-4.5,3-10.2,4.5-17.1,4.5ZM718.6,132.7c4.3,0,8.4-1,12.2-3.1,3.8-2.1,7.1-4.7,9.7-7.9v-47.4c-3.1-2.1-6.4-3.9-10.1-5.2-3.7-1.3-7.6-2-11.6-2s-10.2,1.4-14.3,4.2c-4.1,2.8-7.4,6.6-9.8,11.5-2.4,4.9-3.6,10.7-3.6,17.2s1.2,12,3.6,16.9c2.4,4.9,5.7,8.8,9.8,11.5,4.2,2.8,8.9,4.2,14.1,4.2Z"/>
  </g>
  <g>
    <path class="st0" d="M47.4,295.9c-7.4,0-14-1.9-20-5.6-6-3.7-10.8-9-14.3-15.9-3.6-6.8-5.3-14.9-5.3-24.2s1.8-16.7,5.3-23.8c3.6-7,8.5-12.6,14.8-16.7,6.3-4.1,13.5-6.2,21.6-6.2s9.7.9,13.8,2.6c4.1,1.8,7.7,3.9,10.8,6.5v-7.1h13.9v66.9c0,4.3,1,7.1,3.1,8.4,2.1,1.3,4.4,2,6.9,2l-3.2,11.9c-10.9,0-17.4-4.4-19.7-13.2-2.6,3.6-6.1,6.9-10.6,9.9-4.5,3-10.2,4.5-17.1,4.5ZM50.8,282.3c4.3,0,8.4-1,12.2-3.1,3.8-2.1,7.1-4.7,9.7-7.9v-47.4c-3.1-2.1-6.4-3.9-10.1-5.2-3.7-1.3-7.6-2-11.6-2s-10.2,1.4-14.3,4.2c-4.1,2.8-7.4,6.6-9.8,11.5-2.4,4.9-3.6,10.7-3.6,17.2s1.2,12,3.6,16.9c2.4,4.9,5.7,8.8,9.8,11.5,4.2,2.8,8.9,4.2,14.1,4.2Z"/>
    <path class="st0" d="M150.1,295.9c-7.2,0-13.9-1.9-19.9-5.6-6-3.7-10.8-9-14.3-15.9-3.5-6.8-5.3-14.9-5.3-24.2s1.8-16.9,5.3-23.9c3.6-7,8.3-12.6,14.3-16.6,5.9-4.1,12.5-6.1,19.6-6.1s10.9,1.2,15.2,3.6,7.6,4.8,9.9,7.3v-46.2h15.3v104.2c0,4.3,1,7.1,3.1,8.4,2.1,1.3,4.4,2,6.9,2l-3.2,11.9c-10.8,0-17.3-4.3-19.7-12.9-2.5,3.5-6,6.7-10.4,9.7-4.5,2.9-10.1,4.4-16.9,4.4ZM153.5,282.3c4.2,0,8.2-1,12-3,3.8-2,7-4.6,9.6-7.7v-43.8c-2.2-2.7-5.2-5.2-9-7.6-3.8-2.3-8.1-3.5-12.7-3.5s-10.2,1.5-14.3,4.4c-4.1,2.9-7.2,6.9-9.4,11.8-2.2,4.9-3.3,10.5-3.3,16.7s1.2,11.8,3.6,16.7c2.4,4.9,5.6,8.8,9.8,11.6,4.1,2.8,8.7,4.2,13.8,4.2Z"/>
    <path class="st0" d="M254.3,295.9c-12.7,0-22.7-4-30.1-12.1-7.4-8.1-11.1-19.4-11.1-34s1.7-16.7,5-23.7c3.3-7,8-12.4,14-16.5,6-4,13-6,20.9-6s15.5,1.8,21.1,5.5c5.6,3.7,9.8,8.6,12.6,14.9,2.8,6.2,4.2,13.1,4.2,20.5s-.2,7.8-.5,11.5h-61.8c1,8.3,3.9,14.7,8.7,19.4,4.8,4.6,11,7,18.8,7s9.7-.5,13.8-1.6c4.1-1.1,8-2.5,11.7-4.2l3.6,13.1c-4.1,1.8-8.7,3.3-13.8,4.5s-10.8,1.8-17.1,1.8ZM228.5,243.6h48.4c0-8.6-2.2-15.2-6.5-19.9-4.3-4.6-10.2-7-17.8-7s-12,2.3-16.3,6.9c-4.3,4.6-6.9,11.2-7.8,19.9Z"/>
    <path class="st0" d="M319,190.5c-2.9,0-5.5-1.1-7.6-3.2-2.1-2.1-3.1-4.6-3.1-7.5s1-5.9,2.9-7.8,4.5-2.9,7.8-2.9,5.5,1,7.6,3.1c2.1,2.1,3.1,4.6,3.1,7.6s-1,5.7-2.9,7.7c-1.9,2-4.5,3-7.8,3ZM311.3,293.9v-88.3h15.3v88.3h-15.3Z"/>
    <path class="st0" d="M414.7,295.6l-45.7-47v45.3h-15.3v-125.6h15.3v71.8l39.9-36.2,8.8,9.7-34.1,30.2,41.6,41.6-10.5,10.2Z"/>
    <path class="st0" d="M471.7,295.9c-7.4,0-14-1.9-20-5.6-6-3.7-10.8-9-14.3-15.9-3.6-6.8-5.3-14.9-5.3-24.2s1.8-16.7,5.3-23.8c3.6-7,8.5-12.6,14.8-16.7,6.3-4.1,13.5-6.2,21.6-6.2s9.7.9,13.8,2.6c4.1,1.8,7.7,3.9,10.8,6.5v-7.1h13.9v66.9c0,4.3,1,7.1,3.1,8.4,2.1,1.3,4.4,2,6.9,2l-3.2,11.9c-10.9,0-17.4-4.4-19.7-13.2-2.6,3.6-6.1,6.9-10.6,9.9-4.5,3-10.2,4.5-17.1,4.5ZM475.1,282.3c4.3,0,8.4-1,12.2-3.1,3.8-2.1,7.1-4.7,9.7-7.9v-47.4c-3.1-2.1-6.4-3.9-10.1-5.2-3.7-1.3-7.6-2-11.6-2s-10.2,1.4-14.3,4.2c-4.1,2.8-7.4,6.6-9.8,11.5-2.4,4.9-3.6,10.7-3.6,17.2s1.2,12,3.6,16.9c2.4,4.9,5.7,8.8,9.8,11.5,4.2,2.8,8.9,4.2,14.1,4.2Z"/>
    <path class="st0" d="M569.5,295.9c-5.2,0-9.9-1-14.1-3-4.2-2-7.5-5.2-9.9-9.6-2.4-4.4-3.6-10.1-3.6-17.1v-97.9h15.3v96.4c0,6.1,1.3,10.6,3.8,13.6,2.5,2.9,6.1,4.4,10.6,4.4s4.3-.3,6.4-.8c2.1-.5,3.9-1.1,5.3-1.8l3.7,12.4c-2,.9-4.6,1.7-7.6,2.4-3,.7-6.3,1-9.9,1Z"/>
    <path class="st0" d="M632.7,295.9c-7.4,0-14-1.9-20-5.6-6-3.7-10.8-9-14.3-15.9-3.6-6.8-5.3-14.9-5.3-24.2s1.8-16.7,5.3-23.8c3.6-7,8.5-12.6,14.8-16.7,6.3-4.1,13.5-6.2,21.6-6.2s9.7.9,13.8,2.6c4.1,1.8,7.7,3.9,10.8,6.5v-7.1h13.9v66.9c0,4.3,1,7.1,3.1,8.4,2.1,1.3,4.4,2,6.9,2l-3.2,11.9c-10.9,0-17.4-4.4-19.7-13.2-2.6,3.6-6.1,6.9-10.6,9.9-4.5,3-10.2,4.5-17.1,4.5ZM636.1,282.3c4.3,0,8.4-1,12.2-3.1,3.8-2.1,7.1-4.7,9.7-7.9v-47.4c-3.1-2.1-6.4-3.9-10.1-5.2-3.7-1.3-7.6-2-11.6-2s-10.2,1.4-14.3,4.2c-4.1,2.8-7.4,6.6-9.8,11.5-2.4,4.9-3.6,10.7-3.6,17.2s1.2,12,3.6,16.9c2.4,4.9,5.7,8.8,9.8,11.5,4.2,2.8,8.9,4.2,14.1,4.2Z"/>
    <path class="st0" d="M703.6,293.9v-88.3h14.8v14.8c3.2-4.8,7.2-8.7,12.1-12,4.9-3.2,10.4-4.8,16.6-4.8s12.8,1.7,17.2,5.1c4.5,3.4,7.6,7.9,9.4,13.6,3.5-5.2,7.7-9.6,12.5-13.2,4.8-3.6,10.8-5.4,17.9-5.4s16.8,3,21.5,9.1c4.7,6.1,7,13.9,7,23.7v57.5h-15.3v-56.4c0-6.1-1.4-11.1-4.2-14.9-2.8-3.8-6.7-5.7-11.7-5.7s-9.8,1.9-14.2,5.7c-4.4,3.8-8.2,8.2-11.5,13.3v57.9h-15.3v-56.4c0-6.1-1.4-11.1-4.2-14.9-2.8-3.8-6.7-5.7-11.7-5.7s-9.7,1.8-14.1,5.5c-4.4,3.7-8.3,8-11.5,13v58.4h-15.3Z"/>
  </g>
  <text class="st1" transform="translate(1120.4 144.3)"><tspan x="0" y="0">alejandra</tspan></text>
  <text class="st1" transform="translate(1120.4 301.9)"><tspan x="0" y="0">adeikalam</tspan></text>
</svg>