<?xml version="1.0" encoding="UTF-8"?>
<svg id="Capa_1" xmlns="http://www.w3.org/2000/svg" version="1.1" viewBox="0 0 800 800">
  <!-- Generator: Adobe Illustrator 29.4.0, SVG Export Plug-In . SVG Version: 2.1.0 Build 152)  -->
  <polygon points="800 426.8 434.4 426.8 434.4 653.3 365.6 653.3 365.6 426.8 0 426.8 0 359.6 365.6 359.6 365.6 131.5 434.4 131.5 434.4 359.6 800 359.6 800 426.8"/>
  <polygon points="800 312.7 546.9 312.7 800 165.8 800 312.7"/>
  <polygon points="800 473.6 800 619 546.9 474.4 800 473.6"/>
  <polygon points="764.1 131.5 481.2 294 481.2 131.5 764.1 131.5"/>
  <polygon points="318.7 131.5 318.7 294 35.9 131.5 318.7 131.5"/>
  <polygon points="762.5 653.3 481.2 653.3 481.2 490.8 762.5 653.3"/>
  <polygon points="318.7 653.3 37.5 653.3 318.7 490.8 318.7 653.3"/>
  <polygon points="253.1 312.7 0 312.7 0 165.8 253.1 312.7"/>
  <polygon points="253.1 473.6 0 619 0 473.6 253.1 473.6"/>
</svg>