<?xml version="1.0" encoding="UTF-8"?>
<svg id="Calque_1" xmlns="http://www.w3.org/2000/svg" version="1.1" viewBox="0 0 19.4 18.5">
  <!-- Generator: Adobe Illustrator 29.4.0, SVG Export Plug-In . SVG Version: 2.1.0 Build 152)  -->
  <g id="InDesign">
    <path d="M17,17.3q0,0,0,.2c-1.3.6-2.8,1-4.2,1-3.6,0-6.1-2.1-6.1-6.6s2.5-6.8,6.5-6.8h.9V.8s0-.2.2-.2h2.6c0,0,.2,0,.2,0v16.7ZM14,7.7c-.3,0-.6-.2-1-.2-2.1,0-3.5,1.6-3.5,4.2s1.4,4.2,3.3,4.2.8,0,1.2-.2V7.6h0ZM1.8.3C1.8.1,1.8,0,2,0h2.5c0,0,.2,0,.2.3v17.6c0,.2,0,.3-.2.3H2c-.2,0-.2,0-.2-.3V.3h0Z"/>
  </g>
</svg>