<?xml version="1.0" encoding="UTF-8"?>
<svg id="Calque_1" xmlns="http://www.w3.org/2000/svg" version="1.1" viewBox="0 0 20.6 18.3">
  <!-- Generator: Adobe Illustrator 29.4.0, SVG Export Plug-In . SVG Version: 2.1.0 Build 152)  -->
  <g id="Photoshop">
    <path d="M4.6,0C2.9,0,1.4,0,.4,0c-.1,0-.4,0-.4.2v17.5c0,.1,0,.2.2.2h2.5c.1,0,.2,0,.2-.2v-6.3h1.3c3.7,0,6.7-1.8,6.7-5.9S9.1,0,4.6,0ZM4.2,9c-.4,0-.9,0-1.3,0V2.6c.3,0,.9,0,1.6,0,2.2,0,3.5,1.1,3.5,3.1s-1.8,3.3-3.7,3.3ZM20.6,14.3c0,2.6-2,4-4.7,4-1.2,0-2.3-.2-3.4-.7-.1,0-.1-.1-.1-.3v-2.4c0-.2,0-.2.2-.1,1,.6,2.1,1,3.3,1,1.3,0,1.8-.5,1.8-1.3s-.4-1.1-2-2c-2.3-1.1-3.3-2.2-3.3-4.1s1.6-3.9,4.5-3.9c1,0,2,.1,2.9.5.1,0,.2.2.2.3v2.2c0,.1,0,.2-.2.2-.9-.5-1.9-.7-2.9-.7-1.3,0-1.7.7-1.7,1.2s.3,1,2,1.9c2.6,1.2,3.4,2.4,3.4,4.2h0Z"/>
  </g>
</svg>