<?xml version="1.0" encoding="UTF-8"?>
<svg id="Capa_1" xmlns="http://www.w3.org/2000/svg" version="1.1" viewBox="0 0 800 800">
  <!-- Generator: Adobe Illustrator 29.4.0, SVG Export Plug-In . SVG Version: 2.1.0 Build 152)  -->
  <path d="M800,146.7H0v506.7h800V146.7ZM400,635.2L76.7,400.2l323.3-235,323.3,235-323.3,235Z"/>
  <path d="M291.3,291c95.8,28.3,184,82.2,252.8,154.7,4.5-14.3,6.8-29.7,6.8-45.5,0-84.3-68.3-152.8-152.8-152.8-41.5,0-79.3,16.7-106.8,43.7Z"/>
  <path d="M267.3,321.3c-13.8,23-21.8,50-21.8,78.8,0,84.3,68.3,152.8,152.8,152.8s102.8-28.8,129.8-72.3c-69.7-77-160.5-132.7-260.8-159.3Z"/>
</svg>