<?xml version="1.0" encoding="UTF-8"?>
<svg id="Calque_1" xmlns="http://www.w3.org/2000/svg" version="1.1" viewBox="0 0 67.3 91.3">
  <!-- Generator: Adobe Illustrator 29.4.0, SVG Export Plug-In . SVG Version: 2.1.0 Build 152)  -->
  <defs>
    <style>
      .st0 {
        fill-rule: evenodd;
      }
    </style>
  </defs>
  <path class="st0" d="M58.2,4C44.7-1.3,22.5-1.3,9.1,4c-22,8.8,0,20,24.6,20s19.6-2,24.6-4c12-4.8,12-11.1,0-15.9h-.1ZM67.2,20.4v14c0,2.9-3.5,5.7-9,8-13.5,5.4-35.7,5.4-49.1,0-5.6-2.2-9.1-5-9.1-8v-14c14.2,11.2,53,11.2,67.2,0h0ZM67.2,42.9c-14.2,11.2-53,11.2-67.2,0v14c0,2.9,3.5,5.7,9,8,13.5,5.4,35.7,5.4,49.1,0,5.6-2.2,9-5.1,9-8v-14h0ZM67.2,65.2v14c0,2.9-3.5,5.7-9,8-13.5,5.4-35.7,5.4-49.1,0-5.6-2.1-9.1-5-9.1-8v-14c14.2,11.2,53,11.2,67.2,0h0Z"/>
</svg>