<?xml version="1.0" encoding="UTF-8"?>
<svg id="Calque_1" xmlns="http://www.w3.org/2000/svg" version="1.1" viewBox="0 0 24 14.4">
  <!-- Generator: Adobe Illustrator 29.4.0, SVG Export Plug-In . SVG Version: 2.1.0 Build 152)  -->
  <path d="M12,0c-3.2,0-5.2,1.6-6,4.8,1.2-1.6,2.6-2.2,4.2-1.8.9.2,1.6.9,2.3,1.6,1.2,1.2,2.5,2.6,5.5,2.6s5.2-1.6,6-4.8c-1.2,1.6-2.6,2.2-4.2,1.8-.9-.2-1.6-.9-2.3-1.6-1.2-1.2-2.5-2.6-5.5-2.6ZM6,7.2c-3.2,0-5.2,1.6-6,4.8,1.2-1.6,2.6-2.2,4.2-1.8.9.2,1.6.9,2.3,1.6,1.2,1.2,2.5,2.6,5.5,2.6s5.2-1.6,6-4.8c-1.2,1.6-2.6,2.2-4.2,1.8-.9-.2-1.6-.9-2.3-1.6-1.2-1.2-2.5-2.6-5.5-2.6Z"/>
</svg>